<svg width="512" height="512" viewBox="0 0 512 512" fill="none" xmlns="http://www.w3.org/2000/svg">
<path d="M42.6667 128C42.6667 116.684 47.162 105.832 55.1635 97.8303C63.1651 89.8287 74.0175 85.3335 85.3334 85.3335H426.667C437.983 85.3335 448.835 89.8287 456.837 97.8303C464.838 105.832 469.333 116.684 469.333 128V384C469.333 395.316 464.838 406.169 456.837 414.17C448.835 422.172 437.983 426.667 426.667 426.667H85.3334C74.0175 426.667 63.1651 422.172 55.1635 414.17C47.162 406.169 42.6667 395.316 42.6667 384V128ZM117.739 128L256 248.981L394.261 128H117.76H117.739ZM426.667 156.352L270.059 293.398C266.168 296.806 261.172 298.685 256 298.685C250.828 298.685 245.832 296.806 241.941 293.398L85.3334 156.352V384H426.667V156.352Z" fill="black"/>
</svg>
