<svg width="512" height="512" viewBox="0 0 512 512" fill="none" xmlns="http://www.w3.org/2000/svg">
<path d="M256 256C256 235.048 265.512 214.954 282.444 200.139C299.376 185.323 322.341 177 346.286 177C370.231 177 393.196 185.323 410.128 200.139C427.06 214.954 436.572 235.048 436.572 256C436.572 276.952 427.06 297.046 410.128 311.862C393.196 326.677 370.231 335 346.286 335C322.341 335 299.376 326.677 282.444 311.862C265.512 297.046 256 276.952 256 256V256Z" stroke="black" stroke-width="32"/>
<path d="M75.4285 414.001C75.4285 393.048 84.9407 372.954 101.873 358.139C118.804 343.324 141.769 335 165.714 335H256V414.001C256 434.953 246.488 455.047 229.556 469.862C212.624 484.678 189.66 493.001 165.714 493.001C141.769 493.001 118.804 484.678 101.873 469.862C84.9407 455.047 75.4285 434.953 75.4285 414.001Z" stroke="black" stroke-width="32"/>
<path d="M256 19V177H346.286C370.231 177 393.196 168.677 410.128 153.862C427.06 139.046 436.572 118.952 436.572 98.0001C436.572 77.048 427.06 56.954 410.128 42.1386C393.196 27.3232 370.231 19 346.286 19L256 19Z" stroke="black" stroke-width="32"/>
<path d="M75.4285 98.0001C75.4285 118.952 84.9407 139.046 101.873 153.862C118.804 168.677 141.769 177 165.714 177H256V19H165.714C141.769 19 118.804 27.3232 101.873 42.1386C84.9407 56.954 75.4285 77.048 75.4285 98.0001Z" stroke="black" stroke-width="32"/>
<path d="M75.4285 256C75.4285 276.952 84.9407 297.046 101.873 311.862C118.804 326.677 141.769 335 165.714 335H256V177H165.714C141.769 177 118.804 185.323 101.873 200.139C84.9407 214.954 75.4285 235.048 75.4285 256Z" stroke="black" stroke-width="32"/>
</svg>
