<svg width="512" height="512" viewBox="0 0 512 512" fill="none" xmlns="http://www.w3.org/2000/svg">
<path d="M171.252 397.4C171.252 399.4 168.877 401 165.884 401C162.477 401.3 160.103 399.7 160.103 397.4C160.103 395.4 162.477 393.8 165.471 393.8C168.568 393.5 171.252 395.1 171.252 397.4ZM139.148 392.9C138.426 394.9 140.49 397.2 143.587 397.8C146.271 398.8 149.368 397.8 149.987 395.8C150.606 393.8 148.645 391.5 145.548 390.6C142.865 389.9 139.871 390.9 139.148 392.9ZM184.774 391.2C181.781 391.9 179.716 393.8 180.026 396.1C180.335 398.1 183.019 399.4 186.116 398.7C189.11 398 191.174 396.1 190.865 394.1C190.555 392.2 187.768 390.9 184.774 391.2ZM252.697 8C109.523 8 0 113.3 0 252C0 362.9 72.0516 457.8 174.968 491.2C188.181 493.5 192.826 485.6 192.826 479.1C192.826 472.9 192.516 438.7 192.516 417.7C192.516 417.7 120.258 432.7 105.084 387.9C105.084 387.9 93.3161 358.8 76.3871 351.3C76.3871 351.3 52.7484 335.6 78.0387 335.9C78.0387 335.9 103.742 337.9 117.884 361.7C140.49 400.3 178.374 389.2 193.135 382.6C195.51 366.6 202.219 355.5 209.652 348.9C151.948 342.7 93.729 334.6 93.729 238.4C93.729 210.9 101.574 197.1 118.09 179.5C115.406 173 106.632 146.2 120.774 111.6C142.348 105.1 192 138.6 192 138.6C212.645 133 234.839 130.1 256.826 130.1C278.813 130.1 301.006 133 321.652 138.6C321.652 138.6 371.303 105 392.877 111.6C407.019 146.3 398.245 173 395.561 179.5C412.077 197.2 422.194 211 422.194 238.4C422.194 334.9 361.394 342.6 303.69 348.9C313.187 356.8 321.239 371.8 321.239 395.3C321.239 429 320.929 470.7 320.929 478.9C320.929 485.4 325.677 493.3 338.787 491C442.013 457.8 512 362.9 512 252C512 113.3 395.871 8 252.697 8ZM100.335 352.9C98.9935 353.9 99.3032 356.2 101.058 358.1C102.71 359.7 105.084 360.4 106.426 359.1C107.768 358.1 107.458 355.8 105.703 353.9C104.052 352.3 101.677 351.6 100.335 352.9ZM89.1871 344.8C88.4645 346.1 89.4968 347.7 91.5613 348.7C93.2129 349.7 95.2774 349.4 96 348C96.7226 346.7 95.6903 345.1 93.6258 344.1C91.5613 343.5 89.9097 343.8 89.1871 344.8ZM122.632 380.4C120.981 381.7 121.6 384.7 123.974 386.6C126.348 388.9 129.342 389.2 130.684 387.6C132.026 386.3 131.406 383.3 129.342 381.4C127.071 379.1 123.974 378.8 122.632 380.4ZM110.865 365.7C109.213 366.7 109.213 369.3 110.865 371.6C112.516 373.9 115.303 374.9 116.645 373.9C118.297 372.6 118.297 370 116.645 367.7C115.2 365.4 112.516 364.4 110.865 365.7Z" fill="black"/>
</svg>
