<svg width="512" height="512" viewBox="0 0 512 512" fill="none" xmlns="http://www.w3.org/2000/svg">
<path d="M132.28 479.99H39.4V180.89H132.28V479.99ZM85.79 140.09C56.09 140.09 32 115.49 32 85.79C32 71.524 37.6671 57.8423 47.7547 47.7547C57.8423 37.6671 71.524 32 85.79 32C100.056 32 113.738 37.6671 123.825 47.7547C133.913 57.8423 139.58 71.524 139.58 85.79C139.58 115.49 115.48 140.09 85.79 140.09ZM479.9 479.99H387.22V334.39C387.22 299.69 386.52 255.19 338.93 255.19C290.64 255.19 283.24 292.89 283.24 331.89V479.99H190.46V180.89H279.54V221.69H280.84C293.24 198.19 323.53 173.39 368.72 173.39C462.72 173.39 480 235.29 480 315.69V479.99H479.9Z" fill="black"/>
</svg>
