<svg width="512" height="512" viewBox="0 0 512 512" fill="none" xmlns="http://www.w3.org/2000/svg">
<g clip-path="url(#clip0_1207_343)">
<path d="M288.8 256C288.8 335.52 224.16 400 144.384 400C125.448 400.025 106.693 396.321 89.1895 389.098C71.6856 381.875 55.7759 371.275 42.3686 357.903C28.9613 344.531 18.319 328.65 11.0494 311.165C3.77979 293.681 0.025197 274.936 0 256C0 176.448 64.64 112 144.384 112C163.322 111.971 182.081 115.672 199.588 122.893C217.096 130.115 233.009 140.714 246.42 154.086C259.831 167.458 270.476 183.341 277.748 200.827C285.019 218.314 288.775 237.062 288.8 256ZM447.2 256C447.2 330.88 414.88 391.552 375.008 391.552C335.136 391.552 302.816 330.848 302.816 256C302.816 181.12 335.136 120.448 375.008 120.448C414.88 120.448 447.2 181.152 447.2 256ZM512 256C512 323.072 500.64 377.44 486.592 377.44C472.576 377.44 461.216 323.04 461.216 256C461.216 188.928 472.576 134.56 486.624 134.56C500.64 134.56 512 188.928 512 256Z" fill="black"/>
</g>
<defs>
<clipPath id="clip0_1207_343">
<rect width="512" height="512" fill="white"/>
</clipPath>
</defs>
</svg>
